:SAMPLES-PER-SECOND 30
:FULLY-SPECIFIED
:DEGREES
1340
root  -15.4243 38.0692 5.03297 -104.925 -87.0502 96.543
RightUpLeg  -17.9978 -8.44251 -4.24102
RightLeg  8.96091 -0.960729 0.468073
RightFoot  2.19412 -0.336228 2.96631
RightToes  6.35927e-011 1.30204e-014 -6.03759e-014
Spine  1.6725 -1.58733 -0.031408
Spine1  14.3476 -1.51595 -1.08713
HEad  -16.3221 2.59924 -4.17246
LeftShoulder1  0.376948 2.41975 -28.6406
LeftArm  -11.3833 -12.8515 -30.4669
LeftForeArm  50.1255 -78.4449 -77.8541
LeftHand  -0.074352 0.841244 1.80399
RightShoulder  -0.244089 -4.218 26.7045
RightArm  -18.2103 -0.89247 31.6679
RightForeArm  94.3298 73.4182 135.319
RightHand  -0.0338484 -0.275325 -0.524265
LeftUpLeg  18.4138 5.36968 -3.27596
LeftLeg  15.2662 -0.897929 0.448135
LeftFoot  -23.5671 0.518736 3.5163
LeftToes  -7.16024e-010 4.79583e-011 -5.98286e-011
1341
root  -16.6906 37.9542 4.88813 -120.831 -88.6666 112.669
RightUpLeg  -19.1935 -9.5315 -2.15767
RightLeg  13.4976 0.0830507 0.496961
RightFoot  6.56811 -0.103574 0.916724
RightToes  6.35927e-011 1.30204e-014 -6.03759e-014
Spine  1.61906 -1.70941 3.34376
Spine1  14.4547 -1.48729 -1.52189
HEad  -17.295 2.18296 -4.26764
LeftShoulder1  0.390797 2.38311 -28.7427
LeftArm  -11.0807 -12.1096 -30.6775
LeftForeArm  50.955 -78.4788 -78.7445
LeftHand  -0.0815261 0.825611 1.98469
RightShoulder  -0.268648 -4.28856 26.8732
RightArm  -18.5775 -1.50298 31.0063
RightForeArm  96.5653 72.7285 137.633
RightHand  -0.030788 -0.358502 -0.603084
LeftUpLeg  19.6316 3.68765 -1.61055
LeftLeg  16.7384 0.0946785 0.685439
LeftFoot  -24.0782 0.362855 1.96306
LeftToes  -7.16024e-010 4.79583e-011 -5.98286e-011
1342
root  -17.9719 37.85 4.72493 157.471 -88.8944 -165.574
RightUpLeg  -20.1793 -9.79109 0.129264
RightLeg  18.461 1.76637 0.476747
RightFoot  6.92249 0.178515 -0.847209
RightToes  6.35927e-011 1.30204e-014 -6.03759e-014
Spine  1.92247 -1.6007 6.54625
Spine1  14.3711 -1.14519 -1.92382
HEad  -18.1537 2.41854 -4.53889
LeftShoulder1  0.410864 2.33026 -28.8866
LeftArm  -11.1912 -10.6171 -30.8414
LeftForeArm  52.846 -78.5466 -80.6192
LeftHand  -0.0896914 0.791944 2.18715
RightShoulder  -0.270903 -4.29348 26.9507
RightArm  -18.5463 -1.62165 30.6655
RightForeArm  97.8028 72.4019 138.672
RightHand  -0.0262307 -0.432823 -0.564579
LeftUpLeg  20.1608 2.78045 0.230499
LeftLeg  20.0499 0.415308 0.457682
LeftFoot  -24.1706 -0.0125016 -1.37288
LeftToes  -7.16024e-010 4.79583e-011 -5.98286e-011
1343
root  -19.1919 37.7723 4.52573 130.296 -87.5273 -138.21
RightUpLeg  -20.5767 -8.93819 1.69225
RightLeg  22.8096 1.49484 0.457842
RightFoot  4.17992 0.366305 -2.48085
RightToes  6.35927e-011 1.30204e-014 -6.03759e-014
Spine  2.27729 -1.67771 8.61721
Spine1  14.1896 -1.08398 -1.42352
HEad  -18.2313 3.25812 -4.70889
LeftShoulder1  0.400723 2.37079 -29.2542
LeftArm  -11.5466 -8.6701 -30.8148
LeftForeArm  54.9338 -78.6117 -82.3654
LeftHand  -0.0904677 0.727027 2.14965
RightShoulder  -0.261796 -4.26477 27.0041
RightArm  -17.9137 -1.24183 30.7182
RightForeArm  97.6733 72.6281 138.049
RightHand  -0.0168728 -0.447707 -0.342068
LeftUpLeg  18.8862 3.1367 2.53191
LeftLeg  26.0888 -1.65221 -0.572592
LeftFoot  -22.7461 -0.47564 -6.25433
LeftToes  -7.16024e-010 4.79583e-011 -5.98286e-011
